<svg width="32" height="32" viewBox="0 0 32 32" fill="none" xmlns="http://www.w3.org/2000/svg">
<path d="M28.7462 14.3199L26.9462 12.2133C26.6129 11.8133 26.3329 11.0666 26.3329 10.5333V8.26661C26.3329 6.85327 25.1729 5.69327 23.7595 5.69327H21.4929C20.9595 5.69327 20.1995 5.41327 19.7995 5.07994L17.6929 3.27994C16.7729 2.49327 15.2662 2.49327 14.3462 3.27994L12.2129 5.07994C11.8129 5.41327 11.0662 5.69327 10.5329 5.69327H8.22618C6.81285 5.69327 5.65285 6.85327 5.65285 8.26661V10.5333C5.65285 11.0533 5.38618 11.7999 5.05285 12.1999L3.25285 14.3199C2.47952 15.2533 2.47952 16.7466 3.25285 17.6533L5.05285 19.7733C5.38618 20.1599 5.65285 20.9199 5.65285 21.4399V23.7199C5.65285 25.1333 6.81285 26.2933 8.22618 26.2933H10.5462C11.0662 26.2933 11.8262 26.5733 12.2262 26.9066L14.3329 28.7066C15.2529 29.4933 16.7595 29.4933 17.6795 28.7066L19.7862 26.9066C20.1862 26.5733 20.9329 26.2933 21.4662 26.2933H23.7329C25.1462 26.2933 26.3062 25.1333 26.3062 23.7199V21.4533C26.3062 20.9199 26.5862 20.1733 26.9195 19.7733L28.7195 17.6666C29.5329 16.7599 29.5329 15.2533 28.7462 14.3199ZM14.9995 10.8399C14.9995 10.2933 15.4529 9.83994 15.9995 9.83994C16.5462 9.83994 16.9995 10.2933 16.9995 10.8399V17.2799C16.9995 17.8266 16.5462 18.2799 15.9995 18.2799C15.4529 18.2799 14.9995 17.8266 14.9995 17.2799V10.8399ZM15.9995 22.4933C15.2662 22.4933 14.6662 21.8933 14.6662 21.1599C14.6662 20.4266 15.2529 19.8266 15.9995 19.8266C16.7329 19.8266 17.3329 20.4266 17.3329 21.1599C17.3329 21.8933 16.7462 22.4933 15.9995 22.4933Z" fill="#17181A"/>
</svg>
